<svg width="114" height="19" viewBox="0 0 114 19" fill="none" xmlns="http://www.w3.org/2000/svg">
<path d="M0 15.1801V1.18008H4.68V11.1801H11.26V15.1801H0Z" fill="#B88137"/>
<path d="M12.1252 3.48008V0.580078H16.8252V3.48008H12.1252ZM12.2052 15.1801V4.26008H16.7452V15.1801H12.2052Z" fill="#B88137"/>
<path d="M23.9617 18.4201C21.5417 18.4201 19.6617 17.9401 17.9017 17.0601L19.3017 14.3201C20.5217 14.9601 21.7217 15.3601 23.2417 15.3601C24.9417 15.3601 25.8417 14.4801 25.8417 12.9601V12.6401C25.2017 13.3401 24.2017 14.1401 22.6817 14.1401C19.8617 14.1401 17.8217 12.1401 17.8217 9.12008V9.08008C17.8217 6.02008 19.9017 4.00008 22.4217 4.00008C24.0217 4.00008 24.9617 4.60008 25.7617 5.42008V4.26008H30.3017V12.4201C30.3017 14.4401 29.9017 15.8001 28.8817 16.8201C27.9017 17.8001 26.4217 18.4201 23.9617 18.4201ZM24.0417 10.8201C25.1617 10.8201 25.8617 10.0601 25.8617 9.10008V9.06008C25.8617 8.12008 25.1617 7.36008 24.0417 7.36008C22.9217 7.36008 22.2217 8.14008 22.2217 9.10008V9.14008C22.2217 10.0801 22.9217 10.8201 24.0417 10.8201Z" fill="#B88137"/>
<path d="M31.6573 15.1801V0.580078H36.1973V5.72008C36.8973 4.82008 37.9973 4.00008 39.5373 4.00008C41.8573 4.00008 43.2773 5.50008 43.2773 7.98008V15.1801H38.7373V9.44008C38.7373 8.50008 38.1973 7.96008 37.4973 7.96008C36.7973 7.96008 36.1973 8.50008 36.1973 9.44008V15.1801H31.6573Z" fill="#B88137"/>
<path d="M49.508 15.4201C46.808 15.4201 45.388 14.1801 45.388 11.5201V7.76008H44.108V4.26008H45.388V1.52008H49.928V4.26008H52.448V7.76008H49.928V10.5201C49.928 11.3401 50.308 11.6401 51.028 11.6401C51.448 11.6401 51.908 11.5201 52.408 11.3001V14.8001C51.688 15.1801 50.628 15.4201 49.508 15.4201Z" fill="#B88137"/>
<path d="M53.4738 15.1801V0.580078H58.0138V5.72008C58.7138 4.82008 59.8138 4.00008 61.3538 4.00008C63.6738 4.00008 65.0938 5.50008 65.0938 7.98008V15.1801H60.5537V9.44008C60.5537 8.50008 60.0138 7.96008 59.3138 7.96008C58.6138 7.96008 58.0138 8.50008 58.0138 9.44008V15.1801H53.4738Z" fill="#B88137"/>
<path d="M72.1444 15.4401C68.5444 15.4401 66.0244 12.8601 66.0244 9.76008V9.72008C66.0244 6.62008 68.5844 4.00008 72.1844 4.00008C75.7844 4.00008 78.3044 6.58008 78.3044 9.68008V9.72008C78.3044 12.8201 75.7444 15.4401 72.1444 15.4401ZM72.1844 11.6601C73.2044 11.6601 73.9444 10.8001 73.9444 9.76008V9.72008C73.9444 8.62008 73.1644 7.78008 72.1444 7.78008C71.1244 7.78008 70.3844 8.64008 70.3844 9.68008V9.72008C70.3844 10.8201 71.1644 11.6601 72.1844 11.6601Z" fill="#B88137"/>
<path d="M82.9931 15.4401C80.6731 15.4401 79.2531 13.9401 79.2531 11.4601V4.26008H83.7931V10.0001C83.7931 10.9401 84.3331 11.4801 85.0331 11.4801C85.7331 11.4801 86.3331 10.9401 86.3331 10.0001V4.26008H90.8731V15.1801H86.3331V13.7201C85.6331 14.6201 84.5331 15.4401 82.9931 15.4401Z" fill="#B88137"/>
<path d="M97.0437 15.4401C94.9037 15.4401 93.0238 14.9001 91.4437 13.8601L92.9837 11.2801C94.3237 12.1001 95.7637 12.5001 97.0238 12.5001C97.4638 12.5001 97.6838 12.3801 97.6838 12.1401V12.1001C97.6838 11.8801 97.4837 11.7601 96.3838 11.4601C93.6237 10.7801 91.9238 10.0401 91.9238 7.78008V7.74008C91.9238 5.34008 93.8438 4.00008 96.6837 4.00008C98.5037 4.00008 100.244 4.46008 101.584 5.26008L100.144 7.96008C98.9638 7.32008 97.6038 6.94008 96.6637 6.94008C96.2438 6.94008 96.0238 7.06008 96.0238 7.28008V7.32008C96.0238 7.54008 96.2637 7.70008 97.3637 7.96008C100.144 8.66008 101.784 9.40008 101.784 11.6401V11.6801C101.784 14.0801 100.024 15.4401 97.0437 15.4401Z" fill="#B88137"/>
<path d="M108.392 15.4401C104.792 15.4401 102.392 13.1801 102.392 9.78008V9.74008C102.392 6.48008 104.732 4.00008 108.012 4.00008C111.912 4.00008 113.692 6.70008 113.692 10.0201C113.692 10.2601 113.692 10.5401 113.672 10.7801H106.652C106.972 11.7401 107.732 12.2401 108.712 12.2401C109.532 12.2401 110.212 11.8601 110.932 11.1201L113.372 13.0601C112.272 14.4801 110.772 15.4401 108.392 15.4401ZM106.592 8.78008H109.552C109.452 7.74008 108.832 7.14008 108.032 7.14008C107.252 7.14008 106.732 7.76008 106.592 8.78008Z" fill="#B88137"/>
</svg>
